<?xml version="1.0" encoding="UTF-8"?><svg id="a" xmlns="http://www.w3.org/2000/svg" width="24" height="24" viewBox="0 0 24 24"><defs><style>.b{fill:#232321;}</style></defs><path class="b" d="M9.52,21.9h-.12c-.24,.03-.44-.14-.47-.37l-.97-10.65c-.02-.23,.15-.44,.39-.46h.12c.24-.03,.44,.14,.47,.37l.97,10.65c.02,.23-.15,.44-.39,.46Z"/><rect class="b" x="11.72" y="10.31" width=".98" height="11.54" rx=".42" ry=".42"/><path class="b" d="M4.55,8.33c.02,.22,1.59,13.99,1.6,14,.17,.89,.99,1.53,1.6,1.66,.03,0,8.85,0,8.88,0,.58-.05,1.56-1.02,1.61-1.7,0-.03,1.53-13.42,1.6-13.96H4.55Zm12.89,12.91c-.05,.53-.1,1.06-.5,1.48h0s0,0,0,0c-.02,.02-.08,.06-.08,.06-.38,.29-.83,.35-1.31,.34-2.23-.01-4.46-.01-6.68,0-.22,0-.81,0-1.17-.24-.44-.28-.63-.81-.68-.93-.05-.13-1.42-12.6-1.42-12.62,0-.18,.11-.17,.24-.17,1.91,0,10.37,0,12.69,0,.13,0,.25,0,.24,.17,0,.03-1.32,11.75-1.33,11.9Z"/><path class="b" d="M7.95,2.07c.16-.79,.8-1.32,1.66-1.54,.56-.14,1.13-.31,1.7-.45,1.16-.28,2.26,.12,2.63,1.23,.1,.32,.15,.25-.4,.38-.09,.02-.17,.05-.26,.08-.13,.04-.19,0-.23-.12-.14-.44-.42-.75-.91-.78-.22-.01-1.94,.44-2.57,.62-.5,.14-.79,.61-.7,1.12,.06,.31,.06,.31-.25,.39-.16,.04-.32,.08-.48,.13-.08,.02-.16-.02-.17-.11-.02-.12-.03-.24-.05-.35-.03-.2-.03-.41,.01-.62Z"/><path class="b" d="M16.28,10.97c-.01,.2-.84,10.19-.87,10.44-.03,.2-.21,.33-.41,.36-.15,.02-.29-.04-.39-.16-.05-.06-.07-.14-.07-.22,.07-1.07,.79-10.36,.79-10.39-.03-.33,.17-.56,.47-.56,.29,0,.49,.22,.47,.53Z"/><path class="b" d="M17.7,1.11S6.61,4.06,5,4.45c-2.33,.56-1.28,2.97-1.19,3.31q.07,.25,.33,.18l14.26-3.75c.65-.17,1.29-.34,1.94-.51,.14-.04,.19-.09,.14-.24-.09-.3-.7-2.86-2.79-2.34Zm1.59,1.86c-2,.52-14.57,3.83-14.63,3.85-.2,.06-.46-1.21,.39-1.37,.05-.02,12.11-3.2,13.05-3.46,.84-.18,1.3,.87,1.19,.97Z"/></svg>