<?xml version="1.0" encoding="UTF-8"?><svg id="a" xmlns="http://www.w3.org/2000/svg" width="24" height="24" viewBox="0 0 24 24"><defs><style>.b{fill:#232321;}</style></defs><rect class="b" x="7.78" y="8.11" width="1.08" height="12.86" rx=".47" ry=".47" transform="translate(-1.26 .8) rotate(-5.12)"/><rect class="b" x="11.39" y="8.02" width="1.08" height="12.85" rx=".47" ry=".47"/><path class="b" d="M16.41,8.75c-.01,.22-.92,11.35-.96,11.63-.03,.22-.23,.37-.45,.4-.16,.02-.32-.05-.43-.18-.06-.07-.08-.15-.08-.24,.08-1.2,.87-11.55,.88-11.57-.03-.37,.18-.63,.52-.63,.32,0,.54,.24,.52,.59Z"/><path class="b" d="M8.83,1.16C9.24,.36,10.08,0,11.05,0S12,0,13,0C14.32,0,15.36,.81,15.42,2.12c.02,.37,.09,.31-.54,.29-.1,0-.2,0-.3,0-.14,0-.2-.05-.21-.2-.02-.51-.22-.93-.73-1.1-.23-.08-2.19-.09-2.91-.1-.57,0-1.02,.42-1.08,1-.03,.35-.03,.35-.39,.34-.18,0-.36,0-.55,0-.09,0-.16-.07-.15-.16,.02-.13,.04-.26,.05-.38,.03-.23,.09-.45,.2-.66Z"/><path class="b" d="M20.61,7.07s0,.09-.01,.14c-.02,.21-1.68,14.79-2.03,15.53-.05,.11-.77,1.28-2.01,1.26-.02,0-5.55,0-9.03,0-.73,0-2.18-.61-2.42-2.19,0-.03-1.66-14.14-1.7-14.56-.05-.45-.04-.45,.41-.44,0,0,.02,0,.02,0,.63,0,.62,0,.69,.64,.05,.45,1.61,14.2,1.62,14.23,.38,.98,1.28,1.25,2.04,1.25,2.57-.01,5.13-.02,7.7,0,.63,0,1.16-.12,1.59-.55,.11-.11,.18-.25,.2-.41,.23-1.81,1.87-14.73,1.9-14.91,0-.06,.01-.12,.02-.18,.06-.03,.12-.08,.19-.09,.22-.01,.45,0,.67,0,.21,0,.25,.08,.17,.26Z"/><path class="b" d="M12.46,8.5s0,.01,0,.02c0,0-.01,0-.01,0,0,0,0-.01,0-.02,0,0,.02,0,.02,0Z"/><path class="b" d="M19.21,2.86s-12.64,.04-14.47,0c-2.64-.06-2.22,2.84-2.22,3.23,0,.29,0,.29,.29,.29H19.07c.74,0,1.47,0,2.21,0,.16,0,.23-.04,.22-.21-.01-.34,.08-3.27-2.29-3.31Zm1.15,2.46c-2.28,0-16.6,0-16.68,0-.23,0-.14-1.43,.81-1.36,.06,0,13.8-.02,14.88-.03,.95,.05,1.13,1.31,.99,1.39Z"/></svg>