<?xml version="1.0" encoding="UTF-8"?><svg id="a" xmlns="http://www.w3.org/2000/svg" xmlns:xlink="http://www.w3.org/1999/xlink" viewBox="0 0 1246.77 161.25"><defs><clipPath id="b"><path d="M562.69,140.45c5.8-.18,15.43-1.26,25.9-6.4,15.61-7.67,23.71-19.77,26.82-25.06,2.9,2.12,6.72,4.56,11.63,5.78,7.72,1.93,19.24,1.93,34.47-5.78,0,0,6.19,1.15,7.47-2.21,0,0,23.69,4.22,39.27-28.22,0,0,20.56-45.37-25.61-59.33,0,0-44.39-32.33-80.45-13.14,0,0-39.28,5.03-50.54,37.15,0,0-30.36,48.13,17.45,71.82l6.35,3.76c.13,1.2,.13,2.32,.05,3.36-.8,9.93-9.84,16.35-12.81,18.28Z" fill="none"/></clipPath></defs><g><path d="M713.8,143.75c.09,2.05,.52,4.66,1.77,7.44,2.79,6.23,7.87,9.11,9.53,9.96-4.27,.25-10.05,.12-16.65-1.41-7.73-1.82-13.81-4.92-18.08-7.66-5.44,1.05-11.11,1.61-16.96,1.61-39.52,0-71.55-25.48-71.55-56.9s32.03-56.9,71.55-56.9,71.54,25.47,71.54,56.9c0,19.5-12.33,36.71-31.14,46.97Z"/><g clip-path="url(#b)"><path d="M562.69,140.45c5.8-.18,15.43-1.26,25.9-6.4,15.61-7.67,23.71-19.77,26.82-25.06,2.9,2.12,6.72,4.56,11.63,5.78,7.72,1.93,19.24,1.93,34.47-5.78,0,0,6.19,1.15,7.47-2.21,0,0,23.69,4.22,39.27-28.22,0,0,20.56-45.37-25.61-59.33,0,0-44.39-32.33-80.45-13.14,0,0-39.28,5.03-50.54,37.15,0,0-30.36,48.13,17.45,71.82l6.35,3.76c.13,1.2,.13,2.32,.05,3.36-.8,9.93-9.84,16.35-12.81,18.28Z" fill="#cda58c"/><path d="M654.92,61.46c-5.64-3.98-14.23-9.09-25.6-12.59-13.26-4.08-24.79-4.28-32.19-3.83-1.39-.39-2.21-1.86-1.81-3.25s1.86-2.21,3.25-1.81c7.6-.32,19.02,.09,32.11,4.11,11.24,3.44,19.85,8.36,25.68,12.31,1.39,.39,2.21,1.86,1.81,3.25s-1.86,2.21-3.25,1.81Z" fill="#fff"/><path d="M597.42,55.48c.23-1.31,.83-5.55-1.57-9.96-1.83-3.37-4.48-5.13-5.71-5.84-.26-1.03,.02-2.1,.76-2.81,.89-.85,2.29-1.03,3.44-.4,1.36,1.16,3.06,2.88,4.51,5.31,3.06,5.12,3.11,10.2,2.99,12.49-.09,.21-.52,1.13-1.56,1.56-1.44,.6-2.75-.28-2.84-.34Z" fill="#fff"/><path d="M693.08,68.99c-1.52-2.76-4.02-6.14-8.01-7.84-4.65-1.98-9.37-.85-12.53,.38-.49-.18-.53-1.34-.09-2.57s1.22-2.09,1.71-1.91c3.21-1.13,7.84-2.07,12.44-.13,3.94,1.67,6.5,4.88,8.1,7.59,.49,.18,.53,1.34,.09,2.57-.45,1.23-1.22,2.09-1.71,1.91Z" fill="#fff"/><path d="M643.97,72.61c3.24-3.19,7.25-8.14,9.43-15,2.55-8.01,1.56-15.29,.36-20.02,.24-.84,1.56-1.22,2.93-.84s2.31,1.39,2.07,2.23c1.09,4.84,1.86,12.04-.64,19.94-2.15,6.78-5.97,11.77-9.16,15.08-.24,.84-1.56,1.22-2.93,.84s-2.31-1.39-2.07-2.23Z" fill="#fff"/><path d="M610.34,31.85c.18-2.2,.37-8-2.91-14.45-2.63-5.17-6.22-8.24-8.05-9.63-.91-1.37-1.14-2.97-.55-3.96,.85-1.4,3.45-1.67,5.49,.26,2.16,1.87,5.6,5.32,8.3,10.59,3.88,7.59,3.9,14.46,3.74,17.38-.27,.25-1.26,1.1-2.84,1.08-1.68-.02-2.88-1.02-3.18-1.27Z" fill="#fff"/><path d="M569.7,124.25c.94-1.88,3.13-6.9,2.12-13.27-.81-5.11-3.28-8.61-4.61-10.24-.43-1.4-.1-2.85,.83-3.58,1.32-1.03,3.97-.67,5.32,1.48,1.48,2.13,3.69,5.92,4.52,11.13,1.2,7.51-1.15,13.51-2.31,16.01-.8,.91-2.02,1.37-3.19,1.17-1.38-.23-2.47-1.32-2.68-2.71Z" fill="#fff"/><path d="M574.95,82.56c1.25-.76,4.05-2.71,5.96-6.39,1.82-3.51,1.87-6.75,1.8-8.22,.26-.29,1.13-1.2,2.51-1.35,.91-.1,1.86,.15,2.39,.56,1.99,1.55,.48,7.4-1.51,11.13-2.41,4.52-6.18,7.15-8.87,8.59-1.24,.82-2.92,.38-3.58-.87-.66-1.24-.08-2.89,1.31-3.45Z" fill="#fff"/><path d="M683.3,56.94c1.88-4.61,3.83-11.36,3.31-19.39-.61-9.37-4.34-16.57-7.29-21.03-.1-.97,1.03-1.89,2.48-2.03s2.74,.54,2.83,1.51c2.89,4.62,6.37,11.82,6.99,21.06,.53,7.93-1.22,14.65-3.01,19.37,.1,.97-1.03,1.89-2.48,2.03-1.46,.14-2.74-.54-2.83-1.51Z" fill="#fff"/><path d="M623.25,94.55c1.45-2.04,3.01-5,2.85-8.44-.19-4.01-2.63-7-4.59-8.84-.04-.42,.77-.84,1.81-.95s1.92,.15,1.96,.57c1.92,1.9,4.19,4.9,4.38,8.86,.17,3.4-1.25,6.34-2.64,8.42,.04,.42-.77,.84-1.81,.95s-1.92-.15-1.96-.57Z" fill="#fff"/><path d="M664.46,111.41c-.79-2.65-3.68-11.08-12.28-17.31-10.2-7.4-21.05-6.33-23.39-6.04-1.44-.83-2.03-2.52-1.47-3.81,.44-1.02,1.54-1.68,2.77-1.65,3.09-.23,13.49-.62,23.99,6.25,10.61,6.95,14.44,16.81,15.45,19.73,0,.12-.11,1.92-1.73,2.82-1.61,.89-3.23,.08-3.34,.02Z" fill="#fff"/><path d="M609.9,83.71c-.9,2.15-4.64,2.16-5.38,2.16-2.39,0-4.27-.84-6.69-2.23-4.32-2.48-7.18-4.13-10.17-7.41-3.62-3.97-3.11-5.6-7.05-12.22-2.64-4.43-5.44-9.14-9.9-12.76-2.58-2.09-8.05-5.7-17.4-6.42-1.69,.24-3.17-.51-3.66-1.7-.49-1.2,.23-2.39,.36-2.59,.79-1.3,2.47-1.98,4.28-1.78,1.77,0,4.26,.16,7.14,.89,1.62,.41,4.21,1.23,7.85,3.3,2.13,1.21,6.88,3.94,11.33,8.92,6.83,7.64,4.37,10.95,11.69,19.01,3.6,3.97,5.68,6.25,9.25,7.09,3.06,.72,6.01,.1,7.66,2.23,.72,.93,1.17,2.36,.69,3.5Z" fill="#fff"/></g></g><g><path d="M0,134.75V47.85H35.75c7.7,0,14.29,1.22,19.8,3.66,5.5,2.44,9.74,5.98,12.72,10.61,2.98,4.64,4.47,10.18,4.47,16.63s-1.49,11.86-4.47,16.45-7.22,8.15-12.72,10.67c-5.5,2.53-12.1,3.79-19.8,3.79H9.06l7.08-7.45v32.52H0Zm16.14-30.78l-7.08-7.94h25.94c7.12,0,12.48-1.51,16.08-4.53,3.6-3.02,5.4-7.26,5.4-12.72s-1.8-9.7-5.4-12.72c-3.6-3.02-8.96-4.53-16.08-4.53H9.06l7.08-7.94v50.4Z" fill="#cda58c"/><path d="M117.06,135.99c-6.79,0-13.26-.97-19.43-2.92-6.17-1.94-11.11-4.45-14.83-7.51l5.59-12.54c3.48,2.73,7.78,5.01,12.91,6.83,5.13,1.82,10.38,2.73,15.77,2.73,4.55,0,8.23-.5,11.05-1.49,2.81-.99,4.88-2.34,6.21-4.03,1.32-1.7,1.99-3.62,1.99-5.77,0-2.65-.95-4.78-2.86-6.39-1.9-1.61-4.37-2.9-7.39-3.85-3.02-.95-6.37-1.82-10.05-2.61-3.68-.79-7.37-1.76-11.05-2.92-3.68-1.16-7.06-2.63-10.12-4.41-3.06-1.78-5.52-4.16-7.39-7.14-1.86-2.98-2.79-6.78-2.79-11.42s1.26-9.04,3.79-12.97c2.52-3.93,6.37-7.08,11.54-9.43,5.17-2.36,11.73-3.54,19.67-3.54,5.21,0,10.38,.66,15.52,1.99,5.13,1.32,9.6,3.23,13.41,5.71l-5.09,12.54c-3.89-2.32-7.9-4.03-12.04-5.15-4.14-1.12-8.11-1.68-11.92-1.68-4.39,0-7.99,.54-10.8,1.61-2.81,1.08-4.86,2.5-6.14,4.28-1.28,1.78-1.92,3.75-1.92,5.9,0,2.65,.93,4.78,2.79,6.39,1.86,1.61,4.3,2.88,7.32,3.79,3.02,.91,6.39,1.78,10.12,2.61,3.72,.83,7.41,1.8,11.05,2.92,3.64,1.12,6.99,2.57,10.05,4.34,3.06,1.78,5.52,4.14,7.39,7.08,1.86,2.94,2.79,6.68,2.79,11.23s-1.26,8.92-3.79,12.85c-2.53,3.93-6.39,7.08-11.61,9.43-5.21,2.36-11.79,3.54-19.74,3.54Z" fill="#cda58c"/><path d="M187.69,134.75v-34.38l3.72,9.81-37.86-62.31h17.13l30.54,50.27h-9.68l30.41-50.27h15.89l-37.74,62.31,3.6-9.81v34.38h-16.01Z" fill="#cda58c"/><path d="M284.88,135.99c-6.7,0-12.87-1.1-18.5-3.29-5.63-2.19-10.53-5.32-14.71-9.37-4.18-4.05-7.43-8.77-9.75-14.15-2.32-5.38-3.48-11.34-3.48-17.88s1.16-12.5,3.48-17.88c2.32-5.38,5.59-10.1,9.81-14.15,4.22-4.05,9.14-7.18,14.77-9.37,5.63-2.19,11.79-3.29,18.5-3.29,7.12,0,13.61,1.22,19.49,3.66,5.88,2.44,10.84,6.06,14.9,10.86l-10.43,9.81c-3.23-3.39-6.79-5.94-10.68-7.63-3.89-1.7-8.07-2.54-12.54-2.54s-8.71,.75-12.48,2.23c-3.77,1.49-7.04,3.6-9.81,6.33-2.77,2.73-4.95,5.96-6.52,9.68-1.57,3.72-2.36,7.82-2.36,12.29s.79,8.56,2.36,12.29c1.57,3.72,3.74,6.95,6.52,9.68,2.77,2.73,6.04,4.84,9.81,6.33,3.76,1.49,7.92,2.23,12.48,2.23s8.65-.85,12.54-2.54c3.89-1.7,7.45-4.28,10.68-7.76l10.43,9.81c-4.06,4.8-9.02,8.44-14.9,10.92-5.88,2.48-12.41,3.72-19.61,3.72Z" fill="#cda58c"/><path d="M351.05,134.75h-16.14V47.85h16.14v86.89Zm46.18-37.24h-47.42v-13.78h47.42v13.78Zm-1.24-49.65h16.01v86.89h-16.01V47.85Z" fill="#cda58c"/><path d="M476.17,135.99c-6.7,0-12.93-1.12-18.68-3.35-5.75-2.23-10.74-5.38-14.96-9.43-4.22-4.05-7.49-8.79-9.81-14.21-2.32-5.42-3.48-11.32-3.48-17.69s1.16-12.39,3.48-17.81c2.32-5.42,5.59-10.14,9.81-14.15,4.22-4.01,9.19-7.14,14.9-9.37s11.96-3.35,18.74-3.35,12.91,1.1,18.62,3.29c5.71,2.19,10.65,5.3,14.83,9.31,4.18,4.02,7.43,8.75,9.74,14.21,2.32,5.46,3.48,11.42,3.48,17.88s-1.16,12.39-3.48,17.81c-2.32,5.42-5.57,10.16-9.74,14.21-4.18,4.06-9.12,7.18-14.83,9.37-5.71,2.19-11.92,3.29-18.62,3.29Zm0-14.15c4.39,0,8.42-.74,12.1-2.23,3.68-1.49,6.89-3.6,9.62-6.33,2.73-2.73,4.86-5.96,6.39-9.68,1.53-3.72,2.3-7.82,2.3-12.29s-.75-8.57-2.23-12.29c-1.49-3.72-3.62-6.95-6.39-9.68-2.77-2.73-6-4.84-9.68-6.33-3.68-1.49-7.72-2.23-12.1-2.23s-8.46,.75-12.23,2.23c-3.77,1.49-7.01,3.62-9.75,6.39-2.73,2.77-4.88,6-6.46,9.68-1.57,3.68-2.36,7.76-2.36,12.23s.79,8.44,2.36,12.17c1.57,3.72,3.72,6.97,6.46,9.74,2.73,2.77,5.98,4.9,9.75,6.39,3.76,1.49,7.84,2.23,12.23,2.23Z" fill="#cda58c"/><path d="M806.73,135.99c-6.79,0-13.26-.97-19.43-2.92-6.17-1.94-11.11-4.45-14.83-7.51l5.59-12.54c3.48,2.73,7.78,5.01,12.91,6.83,5.13,1.82,10.38,2.73,15.76,2.73,4.55,0,8.23-.5,11.05-1.49,2.81-.99,4.88-2.34,6.21-4.03,1.32-1.7,1.99-3.62,1.99-5.77,0-2.65-.95-4.78-2.85-6.39-1.91-1.61-4.37-2.9-7.39-3.85-3.02-.95-6.37-1.82-10.06-2.61-3.68-.79-7.37-1.76-11.05-2.92-3.68-1.16-7.06-2.63-10.12-4.41-3.06-1.78-5.52-4.16-7.39-7.14-1.86-2.98-2.79-6.78-2.79-11.42s1.26-9.04,3.79-12.97c2.52-3.93,6.37-7.08,11.54-9.43,5.17-2.36,11.73-3.54,19.67-3.54,5.21,0,10.38,.66,15.52,1.99,5.13,1.32,9.6,3.23,13.41,5.71l-5.09,12.54c-3.89-2.32-7.9-4.03-12.04-5.15-4.14-1.12-8.11-1.68-11.92-1.68-4.39,0-7.99,.54-10.8,1.61-2.81,1.08-4.86,2.5-6.14,4.28-1.28,1.78-1.92,3.75-1.92,5.9,0,2.65,.93,4.78,2.79,6.39,1.86,1.61,4.3,2.88,7.32,3.79,3.02,.91,6.39,1.78,10.12,2.61,3.72,.83,7.41,1.8,11.05,2.92,3.64,1.12,6.99,2.57,10.05,4.34,3.06,1.78,5.52,4.14,7.39,7.08,1.86,2.94,2.79,6.68,2.79,11.23s-1.26,8.92-3.79,12.85c-2.53,3.93-6.39,7.08-11.61,9.43-5.21,2.36-11.79,3.54-19.74,3.54Z"/><path d="M898.58,135.99c-6.7,0-12.93-1.12-18.68-3.35-5.75-2.23-10.74-5.38-14.96-9.43-4.22-4.05-7.49-8.79-9.81-14.21-2.32-5.42-3.48-11.32-3.48-17.69s1.16-12.39,3.48-17.81c2.32-5.42,5.59-10.14,9.81-14.15,4.22-4.01,9.19-7.14,14.9-9.37,5.71-2.23,11.96-3.35,18.74-3.35s12.91,1.1,18.62,3.29c5.71,2.19,10.65,5.3,14.83,9.31,4.18,4.02,7.43,8.75,9.74,14.21,2.32,5.46,3.48,11.42,3.48,17.88s-1.16,12.39-3.48,17.81c-2.32,5.42-5.57,10.16-9.74,14.21-4.18,4.06-9.12,7.18-14.83,9.37-5.71,2.19-11.92,3.29-18.62,3.29Zm0-14.15c4.39,0,8.42-.74,12.1-2.23,3.68-1.49,6.89-3.6,9.62-6.33,2.73-2.73,4.86-5.96,6.39-9.68,1.53-3.72,2.3-7.82,2.3-12.29s-.75-8.57-2.23-12.29c-1.49-3.72-3.62-6.95-6.39-9.68-2.77-2.73-6-4.84-9.68-6.33-3.68-1.49-7.72-2.23-12.1-2.23s-8.46,.75-12.23,2.23c-3.77,1.49-7.01,3.62-9.74,6.39-2.73,2.77-4.88,6-6.46,9.68-1.57,3.68-2.36,7.76-2.36,12.23s.79,8.44,2.36,12.17c1.57,3.72,3.72,6.97,6.46,9.74,2.73,2.77,5.98,4.9,9.74,6.39,3.76,1.49,7.84,2.23,12.23,2.23Z"/><path d="M1002.61,135.99c-6.7,0-12.87-1.1-18.5-3.29-5.63-2.19-10.53-5.32-14.71-9.37-4.18-4.05-7.43-8.77-9.74-14.15-2.32-5.38-3.48-11.34-3.48-17.88s1.16-12.5,3.48-17.88c2.32-5.38,5.59-10.1,9.81-14.15,4.22-4.05,9.14-7.18,14.77-9.37,5.63-2.19,11.79-3.29,18.5-3.29,7.12,0,13.61,1.22,19.49,3.66,5.88,2.44,10.84,6.06,14.9,10.86l-10.43,9.81c-3.23-3.39-6.79-5.94-10.68-7.63-3.89-1.7-8.07-2.54-12.54-2.54s-8.71,.75-12.48,2.23c-3.77,1.49-7.04,3.6-9.81,6.33-2.77,2.73-4.95,5.96-6.52,9.68-1.57,3.72-2.36,7.82-2.36,12.29s.79,8.56,2.36,12.29c1.57,3.72,3.74,6.95,6.52,9.68,2.77,2.73,6.04,4.84,9.81,6.33,3.76,1.49,7.92,2.23,12.48,2.23s8.65-.85,12.54-2.54c3.89-1.7,7.45-4.28,10.68-7.76l10.43,9.81c-4.06,4.8-9.02,8.44-14.9,10.92-5.88,2.48-12.41,3.72-19.61,3.72Z"/><path d="M1052.63,134.75V47.85h16.14v86.89h-16.14Z"/><path d="M1079.94,134.75l39.1-86.89h15.89l39.23,86.89h-17.01l-33.52-78.33h6.46l-33.64,78.33h-16.51Zm18-20.11l4.47-12.66h46.8l4.34,12.66h-55.61Z"/><path d="M1185.2,134.75V47.85h16.14V121.09h45.43v13.65h-61.57Z"/></g></svg>