<svg width="18" height="17" viewBox="0 0 18 17" fill="none" xmlns="http://www.w3.org/2000/svg">
<path d="M3.67383 16.8809H14.3174C16.2246 16.8809 17.209 15.8965 17.209 14.0156V3.31934C17.209 1.43848 16.2246 0.454102 14.3174 0.454102H3.67383C1.77539 0.454102 0.782227 1.42969 0.782227 3.31934V14.0156C0.782227 15.8965 1.77539 16.8809 3.67383 16.8809ZM3.78809 15.1318C2.97949 15.1318 2.53125 14.71 2.53125 13.8574V3.47754C2.53125 2.625 2.97949 2.20312 3.78809 2.20312H14.2031C15.0029 2.20312 15.46 2.625 15.46 3.47754V13.8574C15.46 14.71 15.0029 15.1318 14.2031 15.1318H3.78809ZM5.75684 9.48047H8.17383V11.8975C8.17383 12.3896 8.5166 12.7324 8.99121 12.7324C9.4834 12.7324 9.83496 12.3896 9.83496 11.8975V9.48047H12.252C12.7354 9.48047 13.0781 9.1377 13.0781 8.66309C13.0781 8.1709 12.7354 7.81934 12.252 7.81934H9.83496V5.41113C9.83496 4.91016 9.4834 4.57617 8.99121 4.57617C8.5166 4.57617 8.17383 4.91895 8.17383 5.41113V7.81934H5.75684C5.26465 7.81934 4.92188 8.1709 4.92188 8.66309C4.92188 9.1377 5.26465 9.48047 5.75684 9.48047Z" fill="#1C1C1E"/>
</svg>
